<svg width="240" height="240" viewBox="0 0 240 240" fill="none" xmlns="http://www.w3.org/2000/svg">
  <ellipse cx="120" cy="191" rx="71" ry="13" fill="#E6EDD3"/>
  <path d="M77 179C66 170 58 157 55 142" stroke="#8AAF67" stroke-width="5.5" stroke-linecap="round"/>
  <path d="M163 179C174 170 182 157 185 142" stroke="#8AAF67" stroke-width="5.5" stroke-linecap="round"/>
  <path d="M65 168C56 162 51 154 47 144" stroke="#6FA257" stroke-width="5.5" stroke-linecap="round"/>
  <path d="M175 168C184 162 189 154 193 144" stroke="#6FA257" stroke-width="5.5" stroke-linecap="round"/>
  <circle cx="120" cy="111" r="66" fill="url(#bg)"/>
  <path d="M115 67C145.7 67 170 88.6 170 115C170 141.4 145.7 163 115 163C109.6 163 104.4 162.3 99.6 160.8L76.1 173.1L82.1 150.5C70.7 141.8 63 129.1 63 115C63 88.6 87.3 67 115 67Z" fill="#6EAA56"/>
  <path d="M115 67C145.7 67 170 88.6 170 115C170 132.7 159.1 148.1 142.8 156.4C145.7 150.3 147.3 143.4 147.3 136.1C147.3 109.8 123 88.2 93 88.2C84.7 88.2 76.9 89.8 69.7 92.7C77.5 77.3 95 67 115 67Z" fill="#8FCA6C" fill-opacity=".65"/>
  <circle cx="97.5" cy="111.5" r="10.5" fill="#F7FBF0"/>
  <circle cx="120.5" cy="111.5" r="10.5" fill="#F7FBF0"/>
  <circle cx="143.5" cy="111.5" r="10.5" fill="#F7FBF0"/>
  <defs>
    <radialGradient id="bg" cx="0" cy="0" r="1" gradientUnits="userSpaceOnUse" gradientTransform="translate(120 111) rotate(90) scale(66)">
      <stop stop-color="#F6F9EC"/>
      <stop offset="1" stop-color="#EAF4D9"/>
    </radialGradient>
  </defs>
</svg>
